<svg width="80" height="60" viewBox="0 0 80 60" fill="none" xmlns="http://www.w3.org/2000/svg">
<g clip-path="url(#clip0_955_9082)">
<path d="M41.7061 1.72634C54.5818 1.72634 65.4853 10.1901 69.1408 21.8607H69.9859C66.4391 9.24699 54.8518 0 41.1016 0C25.1521 0 12.1125 12.4471 11.16 28.1574H13.0489C14.2325 13.3647 26.6098 1.72634 41.7061 1.72634Z" fill="#CF9A2C"/>
<path d="M79.945 41.9159C79.9571 42.4735 79.7153 43.7148 78.4269 43.3481C77.1385 42.9813 76.8846 42.2908 75.4458 42.3109C73.7974 42.3324 72.6245 44.0574 72.0563 44.9831C71.7671 45.4805 71.296 45.8461 70.7424 46.0027C70.6685 45.5486 70.4468 45.1537 70.0518 45.0086C70.112 44.6732 70.1001 44.3288 70.0169 43.9983C69.6474 42.4466 67.909 42.855 67.909 42.855C67.9158 42.6988 67.9086 42.5424 67.8875 42.3875C68.4101 41.9536 69.7845 41.2147 71.4329 43.5254C71.4329 43.5254 73.0088 41.5747 74.8802 41.7319C76.7516 41.8891 76.937 42.4802 78.0266 42.9141C79.1161 43.3481 79.8725 43.3709 79.945 41.9159C79.945 41.9159 79.6683 42.8161 78.9791 42.8161C78.2899 42.8161 76.6213 41.0293 74.7297 41.0293C72.8382 41.0293 71.5175 42.8161 71.5175 42.8161C71.5175 42.8161 69.6461 40.4596 67.7962 41.9683C67.3757 40.6921 65.8683 40.3965 64.7815 40.594C63.4756 40.8304 62.4465 42.2249 62.4465 42.2249C62.4465 42.2249 62.284 41.9683 61.4806 41.924C60.0028 41.8703 58.7937 43.2339 58.6674 44.3422C58.6106 44.8776 58.6915 45.4187 58.9025 45.9141C57.375 45.7461 56.9169 47.1769 56.9169 47.1769C54.6451 46.6771 53.5582 49.6717 54.7566 50.999C54.8502 51.1016 54.9503 51.1981 55.0562 51.2879C54.7233 51.2989 54.4037 51.421 54.1482 51.6348C53.8928 51.8485 53.7163 52.1417 53.6469 52.4674C52.6084 52.1652 51.6129 53.1056 51.578 53.9788C51.5551 54.5444 51.7056 55.0724 52.0777 55.4069C51.1696 56.6751 49.6904 57.5336 48.351 58.0938C46.9088 58.685 45.3812 59.0415 43.8262 59.1498C43.1263 59.2022 42.4197 59.2304 41.7063 59.2304C32.0898 59.2304 22.9503 54.046 17.731 46.794L16.362 44.8944C16.362 44.8944 15.3988 44.846 14.5403 44.8783C14.5618 45.022 15.9308 46.794 15.9308 46.794C21.3597 54.5068 30.956 60.0056 41.1044 60.0056C42.5679 60.006 44.0294 59.8995 45.4774 59.6872C45.4774 59.6872 52.4633 58.6823 55.8394 55.9255C55.8985 55.9107 55.9576 55.8946 56.0154 55.8744C56.34 56.0039 56.6876 56.0657 57.0369 56.056C57.3862 56.0463 57.7298 55.9653 58.0467 55.818C58.2536 55.9792 58.8904 56.3903 59.949 56.3258C61.361 56.2399 62.425 54.9918 62.425 54.9918C62.425 54.9918 63.1639 55.3491 64.4187 54.8803C65.3242 54.5431 65.3685 53.733 65.335 53.3461C66.0833 53.1036 66.7216 52.6038 67.1365 51.9354C67.6484 52.0335 69.5547 52.1356 69.9363 49.7711H69.9457C72.0321 49.5857 72.5533 48.4183 73.4535 46.1908C74.3536 43.9634 75.5546 44.1488 76.178 44.1488C76.8013 44.1488 78.2684 44.4591 79.1242 43.9056C79.3636 43.7468 79.5616 43.5332 79.7018 43.2825C79.842 43.0318 79.9203 42.7512 79.9302 42.4641V42.4762C79.9563 42.2906 79.9612 42.1026 79.945 41.9159ZM69.9712 45.3162C70.1056 45.4277 70.338 45.7005 70.338 46.2728C70.338 47.0788 69.904 48.0193 67.7411 48.4854C65.6278 48.9422 64.7197 48.8468 63.7551 47.3851C63.5134 47.4878 63.2531 47.539 62.9906 47.5356C62.6031 47.524 62.2352 47.3618 61.9652 47.0836C61.6952 46.8053 61.5442 46.4328 61.5442 46.045C61.5442 45.6573 61.6952 45.2848 61.9652 45.0065C62.2352 44.7283 62.6031 44.5661 62.9906 44.5545C63.127 44.5539 63.2627 44.5729 63.3937 44.6109L63.4098 44.5424C63.4813 44.2616 63.6467 44.0137 63.8784 43.8398C64.1102 43.6659 64.3944 43.5763 64.684 43.5861C64.9736 43.5958 65.2511 43.7042 65.4707 43.8932C65.6902 44.0823 65.8386 44.3407 65.8911 44.6257C65.692 44.534 65.4749 44.4881 65.2557 44.4913C64.5195 44.4913 63.9216 45.2276 63.9216 45.8858C63.9216 46.8155 64.5195 47.2562 65.2557 47.2562C65.7931 47.2562 66.2525 47.0238 66.4648 46.5415C66.6878 46.7132 66.9452 46.8349 67.2194 46.8984C67.4936 46.962 67.7783 46.9658 68.0541 46.9096C68.9018 46.7201 69.6824 46.1532 69.9712 45.3162ZM59.988 43.301C61.353 41.9455 62.5406 42.6992 62.5406 42.6992C63.0188 42.01 63.876 41.1032 65.738 41.2469C67.6 41.3907 67.2601 43.4193 67.2601 43.4193C68.3886 42.9464 69.4231 43.6557 69.3586 44.3597C69.3232 44.7859 69.1665 45.1931 68.907 45.533C68.6475 45.873 68.296 46.1316 67.8942 46.2781C66.9243 46.6422 66.4581 46.1223 66.4581 46.1223C66.3862 46.2989 66.2634 46.4501 66.1052 46.5566C65.9471 46.6631 65.7607 46.72 65.5701 46.7201C65.3534 46.7115 65.1484 46.6193 64.9982 46.4629C64.8479 46.3065 64.764 46.098 64.764 45.8811C64.764 45.6643 64.8479 45.4558 64.9982 45.2994C65.1484 45.143 65.3534 45.0508 65.5701 45.0422C65.9435 45.0422 66.0739 45.335 66.0282 45.6037C66.326 45.3034 66.4939 44.8982 66.4957 44.4752C66.5011 43.5617 65.7044 42.8241 64.7331 42.8241C63.8357 42.8241 63.0954 43.4529 62.9866 44.2683C62.9454 44.2683 62.9038 44.2683 62.8617 44.2683C61.9065 44.2683 61.1326 45.0932 61.1326 46.1115C61.1322 46.3461 61.1745 46.5787 61.2576 46.7981C61.0614 46.8491 60.6476 46.9123 60.3091 46.6637C59.8402 46.3171 58.6231 44.6579 59.988 43.3037V43.301ZM55.0978 49.0457C55.5251 47.4456 57.062 47.6606 57.062 47.6606C57.6141 46.121 59.0046 46.4152 59.2115 46.4689C59.4218 46.7752 59.721 47.0096 60.0686 47.1406C60.7806 47.3838 61.2697 47.2978 61.486 47.232C61.5904 47.3758 61.7158 47.5031 61.8581 47.6095C62.1268 48.0287 62.2396 48.8683 62.0247 49.3493C61.9121 49.5944 61.7253 49.7979 61.4907 49.931C61.2561 50.064 60.9856 50.12 60.7175 50.0909C60.2218 50.0291 60.082 49.8034 60.082 49.8034C59.9553 49.9963 59.7829 50.1551 59.5803 50.2657C59.3776 50.3763 59.1508 50.4353 58.92 50.4375C58.1327 50.4375 58.0816 49.5777 58.4095 49.3063C58.7373 49.0349 59.0127 49.2042 59.0315 49.3547C59.0352 49.4055 59.0203 49.456 58.9897 49.4967C58.9591 49.5375 58.9147 49.5657 58.8649 49.5763C59.021 49.5956 59.1786 49.5558 59.3069 49.4648C59.5527 49.3076 59.4829 48.6762 58.8205 48.6265C58.2482 48.5835 57.4771 48.8737 57.4771 49.8356C57.4771 50.7975 58.4054 50.991 58.9092 50.9104C59.3508 50.838 59.7542 50.6166 60.0525 50.283C61.0413 51.0474 62.4008 50.3381 62.7219 49.4769C62.889 48.9819 62.9021 48.4479 62.7596 47.9454C62.7918 47.9454 62.8227 47.9521 62.8549 47.9521C63.1158 47.952 63.3729 47.8894 63.6046 47.7694C63.7666 48.2175 64.0886 48.5898 64.5087 48.8146C64.6229 49.0483 64.9118 49.7792 64.4953 50.377C63.9902 51.0985 63.2338 50.7115 63.2338 50.7115C62.9785 51.8481 61.2965 52.5642 59.6817 52.4916C58.0669 52.4191 57.7109 51.5002 57.7109 51.5002C56.0839 51.7944 54.6706 50.6511 55.0978 49.0483V49.0457ZM52.5144 55.6595C52.5733 55.6824 52.6334 55.7021 52.6944 55.7186C53.157 55.8401 53.647 55.8032 54.0862 55.6138C54.371 55.8504 54.7277 55.983 55.0978 55.99C54.4798 56.4454 51.848 58.1543 45.922 59.2411C49.947 58.4525 52.028 56.2425 52.5144 55.6622V55.6595ZM56.3271 55.7307C56.5277 55.6363 56.7047 55.4984 56.8455 55.3272C56.9863 55.156 57.0873 54.9556 57.1412 54.7406C57.4234 53.4589 56.6549 52.9605 56.0665 52.8879C55.478 52.8154 54.9689 53.1835 55.0548 53.7424C55.1408 54.3013 55.7373 54.2274 55.7373 54.2274C55.2187 53.9318 55.4686 53.3474 55.9214 53.3084C56.3741 53.2695 56.8148 53.7222 56.671 54.4638C56.1713 56.5462 54.0634 55.3505 54.0634 55.3505C53.1498 55.9094 51.7379 54.9958 52.1315 53.7222C52.5251 52.4486 54.0311 52.7818 54.0311 52.7818C54.0983 51.7568 54.9017 51.5821 55.5291 51.6049C56.1842 51.9327 56.9372 52.0069 57.6437 51.8132C57.9427 52.1825 58.326 52.4746 58.7614 52.6649C59.2988 54.6398 58.443 55.1732 57.6625 55.544C57.2462 55.7389 56.7812 55.8049 56.3271 55.7334V55.7307ZM62.3095 54.6747C61.6378 55.368 60.203 56.4683 58.4135 55.6152C58.7675 55.3885 59.0495 55.0655 59.2263 54.6841C59.3079 54.4906 59.36 54.2859 59.3808 54.0769C59.7767 54.3594 60.2596 54.4931 60.7444 54.4544C62.2665 54.3926 62.7407 53.2063 62.7407 53.2063C62.7407 53.2063 63.262 53.7907 64.9118 53.4589C64.8983 53.8942 64.6485 54.973 62.3095 54.6774V54.6747ZM64.8312 52.9887C63.7564 53.3111 62.5325 52.7402 62.5325 52.7402C62.2961 53.3702 61.5921 53.9869 60.7202 54.0997C60.2545 54.167 59.7805 54.0588 59.3902 53.7961C59.3844 53.4541 59.3218 53.1154 59.2048 52.7939C59.7591 52.8894 60.3265 52.8799 60.8774 52.7657C62.7958 52.4244 63.4299 51.2624 63.4299 51.2624C65.5593 51.6211 65.4693 49.5468 65.429 49.1128C65.7355 49.1607 66.0466 49.1733 66.356 49.1505C66.4997 49.141 66.6381 49.129 66.7711 49.1155C66.9175 49.2499 67.1997 49.6301 67.1218 50.5651C67.0129 51.8132 65.9086 52.6676 64.8312 52.9887ZM67.3286 51.5687C67.4751 51.2544 67.566 50.9171 67.5973 50.5718C67.6672 49.6798 67.3555 49.2284 67.2064 49.0631C67.4751 49.0242 67.7263 48.9785 67.9534 48.9288C68.0689 49.1652 68.4585 49.7348 69.5023 49.7819C69.3908 50.2736 68.9435 51.5311 67.3286 51.5687ZM79.5823 43.2661C78.8515 44.3409 76.5152 43.4784 75.0898 43.8196C73.6644 44.1609 72.8637 46.1653 72.2014 47.4792C71.539 48.7931 70.4871 48.996 69.7119 48.996C69.3537 49.013 68.9999 48.9109 68.7057 48.7058C69.3092 48.4908 69.8556 48.1406 70.3031 47.682C70.5717 47.4134 70.7303 46.9727 70.7625 46.5213C72.0872 46.3937 72.2537 45.4371 73.2385 44.2374C74.2501 43.0015 75.6567 42.4157 76.6724 42.9571C77.8277 43.5765 78.7883 43.8693 79.4197 43.4152C79.483 43.3687 79.5407 43.3151 79.5917 43.2554L79.5823 43.2661Z" fill="#CF9A2C"/>
<path d="M40.9701 40.09H42.4479C42.9071 40.0896 43.3473 39.907 43.672 39.5824C43.9967 39.2577 44.1793 38.8174 44.1796 38.3582V31.8626C44.1796 31.6829 44.1515 31.5043 44.0963 31.3333C44.1754 31.0865 44.3033 30.858 44.4725 30.6616V28.2998H42.9732V29.2402C42.9732 29.3471 43.0157 29.4496 43.0912 29.5252C43.1668 29.6008 43.2693 29.6433 43.3762 29.6433H43.6718V30.6414C43.5113 30.4793 43.3203 30.3505 43.1098 30.2626C42.8992 30.1748 42.6734 30.1296 42.4452 30.1296H40.9674C40.5086 30.131 40.069 30.3142 39.745 30.639C39.4209 30.9638 39.2388 31.4038 39.2384 31.8626V38.3582C39.2388 38.8174 39.4213 39.2577 39.746 39.5824C40.0707 39.907 40.5109 40.0896 40.9701 40.09ZM40.9379 32.3449C40.9379 32.2085 40.9921 32.0776 41.0886 31.9811C41.1851 31.8846 41.3159 31.8304 41.4524 31.8304H41.9616C42.098 31.8304 42.2289 31.8846 42.3254 31.9811C42.4219 32.0776 42.4761 32.2085 42.4761 32.3449V37.9498C42.4761 38.2346 42.245 38.3905 41.9616 38.3905H41.4524C41.1689 38.3905 40.9379 38.2346 40.9379 37.9498V32.3449Z" fill="#7A1315"/>
<path d="M41.9655 29.0236L43.3183 27.2637H42.5418C42.4166 27.2637 42.293 27.2925 42.1807 27.348C42.0684 27.4034 41.9704 27.484 41.8943 27.5834L40.5508 29.3299H41.3367C41.4578 29.3293 41.5772 29.3015 41.686 29.2485C41.7949 29.1955 41.8904 29.1186 41.9655 29.0236Z" fill="#7A1315"/>
<path d="M19.7582 31.0936V38.3039C19.7589 38.7775 19.9475 39.2314 20.2824 39.5661C20.6174 39.9009 21.0715 40.089 21.545 40.0894H25.2731L25.0837 39.8852C24.8942 39.6678 24.7614 39.4071 24.6968 39.1261V30.125H22.9973V38.3899H21.545C21.5222 38.3899 21.5003 38.3809 21.4842 38.3647C21.4681 38.3486 21.459 38.3267 21.459 38.3039V30.129H19.1819L19.3727 30.3332C19.5603 30.5521 19.6926 30.8129 19.7582 31.0936Z" fill="#7A1315"/>
<path d="M37.4113 29.6433H37.7109V30.1296H36.3996V38.3905H35.5828C35.1798 38.3905 34.8614 38.1419 34.8614 37.7429V30.1296H32.5856L32.775 30.3338C32.9633 30.5524 33.0961 30.8133 33.1619 31.0942V38.3045C33.1619 38.5391 33.2081 38.7714 33.298 38.9881C33.3878 39.2048 33.5194 39.4017 33.6853 39.5675C33.8513 39.7333 34.0483 39.8648 34.265 39.9544C34.4818 40.0441 34.7141 40.0901 34.9487 40.09H38.6768L38.486 39.8858C38.2977 39.6676 38.165 39.4072 38.0991 39.1267V31.4556C38.1701 31.1637 38.3081 30.8923 38.5022 30.6629V28.2998H37.0069V29.2402C37.0069 29.2933 37.0174 29.3458 37.0377 29.3948C37.058 29.4438 37.0878 29.4882 37.1254 29.5257C37.163 29.5631 37.2076 29.5928 37.2566 29.613C37.3057 29.6331 37.3582 29.6434 37.4113 29.6433Z" fill="#7A1315"/>
<path d="M45.4023 31.0945V40.0956H47.6754L47.486 39.8928C47.301 39.6759 47.1694 39.4187 47.1017 39.1418V31.8307H48.1765C48.3003 31.8311 48.4188 31.8805 48.5062 31.9681C48.5936 32.0557 48.6427 32.1745 48.6427 32.2982V40.0903H50.9266L50.7358 39.8861C50.5475 39.6679 50.4148 39.4075 50.3489 39.127V31.9167C50.3489 31.443 50.1608 30.9887 49.826 30.6537C49.4912 30.3186 49.0371 30.1302 48.5634 30.1299H44.8259L45.0154 30.3301C45.2043 30.5498 45.337 30.8121 45.4023 31.0945Z" fill="#7A1315"/>
<path d="M79.961 40.0903L79.7703 39.8861C79.5821 39.668 79.4498 39.4075 79.3847 39.127V31.9167C79.3843 31.4429 79.196 30.9886 78.861 30.6536C78.526 30.3186 78.0717 30.1302 77.5979 30.1299H70.5918L70.7812 30.3341C70.9696 30.5527 71.1023 30.8135 71.1681 31.0945V40.0956H73.4413L73.2518 39.8928C73.0669 39.6759 72.9353 39.4187 72.8676 39.1418V31.8307H73.9424C74.0664 31.8307 74.1853 31.88 74.273 31.9676C74.3606 32.0553 74.4099 32.1742 74.4099 32.2982V40.0903H76.7206L76.5312 39.8874C76.3464 39.6706 76.2152 39.4133 76.1483 39.1364V31.8307H77.2231C77.3471 31.8307 77.466 31.88 77.5537 31.9676C77.6414 32.0553 77.6906 32.1742 77.6906 32.2982V40.0903H79.961Z" fill="#7A1315"/>
<path d="M8.0192 20.1318H0.442118L2.05426 21.744V35.6353H3.75373V21.8313H8.01785C8.0909 21.8313 8.16095 21.8603 8.2126 21.912C8.26425 21.9636 8.29326 22.0337 8.29326 22.1067V38.0414C8.29326 38.1145 8.26425 38.1845 8.2126 38.2362C8.16095 38.2878 8.0909 38.3168 8.01785 38.3168H3.63685H3.14649L4.13259 36.8686H2.10666L0.00415039 40.0526L8.02323 40.0123C8.5469 40.0112 9.04881 39.8026 9.41898 39.4322C9.78914 39.0618 9.9974 38.5597 9.99811 38.036V22.1067C9.99739 21.5825 9.78855 21.0799 9.41747 20.7096C9.04639 20.3393 8.54345 20.1315 8.0192 20.1318Z" fill="#7A1315"/>
<path d="M10.9519 39.8865L10.7625 40.0894H13.6146L13.4252 39.8852C13.2364 39.6674 13.1035 39.4069 13.0383 39.1261V30.125H10.7544L10.9452 30.3292C11.1329 30.5482 11.2656 30.8089 11.3321 31.0896V39.1221C11.2674 39.4033 11.1371 39.6653 10.9519 39.8865Z" fill="#7A1315"/>
<path d="M12.1007 29.0879C12.2228 29.0879 12.3437 29.0638 12.4565 29.0171C12.5693 28.9704 12.6717 28.9019 12.7581 28.8156C12.8444 28.7292 12.9129 28.6268 12.9596 28.514C13.0063 28.4012 13.0304 28.2803 13.0304 28.1582C13.0304 27.9116 12.9324 27.6752 12.7581 27.5008C12.5837 27.3265 12.3473 27.2285 12.1007 27.2285C11.8541 27.2285 11.6177 27.3265 11.4433 27.5008C11.269 27.6752 11.171 27.9116 11.171 28.1582C11.171 28.2803 11.1951 28.4012 11.2418 28.514C11.2885 28.6268 11.357 28.7292 11.4433 28.8156C11.5296 28.9019 11.6321 28.9704 11.7449 29.0171C11.8577 29.0638 11.9786 29.0879 12.1007 29.0879Z" fill="#7A1315"/>
<path d="M27.5315 23.5242H26.6099V22.0773C26.6099 21.9959 26.6421 21.9179 26.6995 21.8602C26.7569 21.8026 26.8348 21.77 26.9162 21.7697H29.9954V39.1271C29.9281 39.4075 29.7956 39.668 29.6085 39.8875L29.419 40.0903H32.2698L32.0818 39.8875C31.8935 39.6688 31.7608 39.408 31.6948 39.1271V21.7697H34.7096C34.7912 21.7697 34.8694 21.8021 34.9271 21.8598C34.9848 21.9175 35.0172 21.9957 35.0172 22.0773V23.5242H34.0862L33.5623 25.225H36.718V20.7916C36.718 20.6014 36.6424 20.4189 36.5079 20.2843C36.3734 20.1498 36.1909 20.0742 36.0006 20.0742H24.9104V25.225H28.0877L27.5315 23.5242Z" fill="#7A1315"/>
<path d="M19.1778 38.1369V36.3434L18.987 36.4777C18.8897 36.5462 18.7888 36.6094 18.6848 36.6671L17.8787 37.1118C17.7576 37.1776 17.6564 37.2746 17.5855 37.3927C17.5146 37.5108 17.4767 37.6458 17.4756 37.7835V38.1328C17.4756 38.2002 17.4489 38.2648 17.4013 38.3124C17.3537 38.36 17.2891 38.3868 17.2217 38.3868H15.9374V36.7921L18.0963 35.6045C18.4223 35.424 18.694 35.1595 18.8831 34.8384C19.0721 34.5173 19.1715 34.1513 19.1711 33.7787V32.2391C19.1704 31.6799 18.9479 31.1438 18.5525 30.7484C18.1571 30.353 17.621 30.1306 17.0619 30.1299H14.2339V40.0903H17.2177C17.4747 40.091 17.7294 40.041 17.9671 39.9431C18.2048 39.8453 18.4208 39.7016 18.6029 39.5201C18.785 39.3387 18.9295 39.1231 19.0281 38.8857C19.1268 38.6484 19.1776 38.3939 19.1778 38.1369ZM15.9401 31.8307H17.0686C17.1755 31.8307 17.278 31.8732 17.3536 31.9487C17.4291 32.0243 17.4716 32.1268 17.4716 32.2337V33.7733C17.4715 33.842 17.453 33.9093 17.418 33.9684C17.3831 34.0275 17.3329 34.0761 17.2728 34.1092L15.9293 34.8468L15.9401 31.8307Z" fill="#7A1315"/>
<path d="M16.448 28.9288L16.8242 29.5091H17.9097L17.0055 28.1133H16.976H15.92H15.9146L15.0092 29.5091H16.0718L16.448 28.9288Z" fill="#7A1315"/>
<path d="M51.3952 31.8621V38.3577C51.3956 38.8169 51.5782 39.2571 51.9028 39.5818C52.2275 39.9065 52.6678 40.089 53.1269 40.0894H54.633V40.573C54.633 41.3384 54.3289 42.0724 53.7877 42.6136C53.2466 43.1547 52.5126 43.4588 51.7472 43.4588H25.9636C20.039 43.3929 19.417 43.491 18.4403 44.1842C18.2536 44.3186 17.422 45.259 16.1349 44.8237C14.8479 44.3884 15.6365 43.2317 16.8819 43.3016C18.1273 43.3715 17.4112 44.1681 17.4112 44.1681C17.4112 44.1681 18.0937 43.9115 18.1582 43.1968C18.2227 42.4821 17.473 42.2013 17.473 42.2013C17.3695 42.3923 17.2161 42.5516 17.0292 42.6623C16.8423 42.7731 16.6289 42.831 16.4117 42.83C16.1921 42.8338 15.9758 42.7771 15.7862 42.6662C15.5967 42.5553 15.4413 42.3945 15.3369 42.2013C15.3369 42.2013 14.6235 42.2779 14.324 43.2385C14.324 43.2385 13.3835 43.1229 13.4118 44.0365C13.44 44.95 14.5403 44.8707 14.5403 44.8707C14.5403 44.8707 14.9057 45.7709 16.2599 45.7709C17.6141 45.7709 18.2549 45.3598 18.9025 44.6074C19.4398 43.98 20.4085 44.0082 22.5875 44.0553H22.5768H22.8455C23.6999 44.0741 24.7263 44.0915 25.9757 44.0741C33.8524 44.1238 52.6581 44.2474 52.6581 44.2474C53.5499 44.2462 54.411 43.9209 55.081 43.3323C55.7509 42.7436 56.1842 41.9316 56.3002 41.0473H56.3338V31.0788C56.4011 30.8028 56.5318 30.5461 56.7153 30.3292L56.9034 30.125H53.1269C52.8992 30.1254 52.6737 30.1706 52.4634 30.258C52.2531 30.3455 52.0621 30.4736 51.9013 30.6349C51.7405 30.7962 51.6131 30.9876 51.5262 31.1982C51.4394 31.4087 51.3949 31.6343 51.3952 31.8621ZM53.5125 31.8298H54.2151C54.2699 31.8297 54.3242 31.8403 54.3749 31.8612C54.4256 31.882 54.4717 31.9127 54.5105 31.9513C54.5493 31.99 54.5801 32.036 54.6011 32.0866C54.6221 32.1372 54.633 32.1915 54.633 32.2463V37.9735C54.633 38.0283 54.6221 38.0825 54.6011 38.1331C54.5801 38.1838 54.5493 38.2297 54.5105 38.2684C54.4717 38.3071 54.4256 38.3378 54.3749 38.3586C54.3242 38.3795 54.2699 38.3901 54.2151 38.3899H53.5125C53.4018 38.3896 53.2957 38.3454 53.2175 38.2672C53.1392 38.1889 53.0951 38.0828 53.0947 37.9721V32.2463C53.0947 32.1915 53.1055 32.1372 53.1265 32.0866C53.1475 32.036 53.1783 31.99 53.2172 31.9513C53.256 31.9127 53.302 31.882 53.3527 31.8612C53.4034 31.8403 53.4577 31.8297 53.5125 31.8298Z" fill="#7A1315"/>
<path d="M16.3996 40.5088C16.1582 40.5091 15.9267 40.6052 15.7559 40.776C15.5852 40.9467 15.4891 41.1782 15.4888 41.4196C15.4891 41.6611 15.5852 41.8926 15.7559 42.0633C15.9267 42.2341 16.1582 42.3302 16.3996 42.3305C16.6412 42.3305 16.8729 42.2345 17.0437 42.0637C17.2145 41.8929 17.3105 41.6612 17.3105 41.4196C17.3105 41.1781 17.2145 40.9464 17.0437 40.7756C16.8729 40.6047 16.6412 40.5088 16.3996 40.5088Z" fill="#7A1315"/>
<path d="M70.0195 39.1004V22.404C70.0195 21.8096 69.7834 21.2397 69.3631 20.8194C68.9429 20.3992 68.3729 20.1631 67.7786 20.1631H60.0013L61.7116 21.8142V39.091C61.6453 39.3703 61.5131 39.6297 61.326 39.8474L61.1366 40.0556H63.9753L63.7872 39.8514C63.6027 39.6361 63.472 39.3801 63.4057 39.1044V21.8666H67.7786C67.922 21.8666 68.0597 21.9229 68.1619 22.0234C68.2642 22.1239 68.3229 22.2606 68.3254 22.404V30.0764H64.5073L65.5485 31.6792H68.3254V39.095C68.2588 39.3727 68.1271 39.6306 67.9411 39.8474L67.7531 40.0516H70.5918L70.4064 39.8514C70.2192 39.6356 70.0865 39.3781 70.0195 39.1004Z" fill="#7A1315"/>
</g>
<defs>
<clipPath id="clip0_955_9082">
<rect width="79.961" height="60" fill="white"/>
</clipPath>
</defs>
</svg>
