<svg width="14" height="18" viewBox="0 0 14 18" fill="none" xmlns="http://www.w3.org/2000/svg">
<path fill-rule="evenodd" clip-rule="evenodd" d="M13.6193 14.2489C13.6193 17.0135 9.82811 17.333 6.97714 17.333L6.77312 17.3329C4.95672 17.3285 0.333252 17.2138 0.333252 14.2321C0.333252 11.524 3.97213 11.162 6.8014 11.1484L7.18115 11.1481C8.99743 11.1526 13.6193 11.2672 13.6193 14.2489ZM6.97714 12.4061C3.40314 12.4061 1.5914 13.0201 1.5914 14.2321C1.5914 15.455 3.40314 16.0749 6.97714 16.0749C10.5503 16.0749 12.3612 15.4609 12.3612 14.2489C12.3612 13.026 10.5503 12.4061 6.97714 12.4061ZM6.97714 0.666382C9.43305 0.666382 11.4302 2.66433 11.4302 5.12024C11.4302 7.57616 9.43305 9.57326 6.97714 9.57326H6.9503C4.49942 9.56571 2.51405 7.56693 2.52241 5.11773C2.52241 2.66433 4.52038 0.666382 6.97714 0.666382ZM6.97714 1.86414C5.18133 1.86414 3.72018 3.32444 3.72018 5.12024C3.71433 6.91017 5.16456 8.36963 6.95281 8.37634L6.97714 8.97522V8.37634C8.7721 8.37634 10.2324 6.91521 10.2324 5.12024C10.2324 3.32444 8.7721 1.86414 6.97714 1.86414Z" fill="#595959"/>
</svg>
