<svg width="16" height="18" viewBox="0 0 16 18" fill="none" xmlns="http://www.w3.org/2000/svg">
<path fill-rule="evenodd" clip-rule="evenodd" d="M6.38607 15.4775C6.78762 15.9248 7.30312 16.1706 7.83801 16.1706H7.83878C8.37599 16.1706 8.89382 15.9248 9.29615 15.4768C9.51165 15.2388 9.87909 15.2194 10.1171 15.4341C10.3558 15.6489 10.3752 16.0171 10.1605 16.2551C9.53413 16.9504 8.7101 17.3334 7.83878 17.3334H7.83723C6.96824 17.3326 6.14576 16.9496 5.52173 16.2543C5.307 16.0163 5.32638 15.6481 5.56514 15.4341C5.8039 15.2186 6.17134 15.238 6.38607 15.4775ZM7.87661 0.666687C11.3223 0.666687 13.6371 3.35041 13.6371 5.85661C13.6371 7.14576 13.965 7.69227 14.313 8.27211C14.6572 8.84421 15.0472 9.49382 15.0472 10.7217C14.7766 13.8589 11.5014 14.1147 7.87661 14.1147C4.25181 14.1147 0.975836 13.8589 0.708384 10.7713C0.706069 9.49382 1.09599 8.84421 1.44018 8.27211L1.56168 8.06758C1.86086 7.5534 2.11615 6.99409 2.11615 5.85661C2.11615 3.35041 4.43087 0.666687 7.87661 0.666687ZM7.87661 1.82948C5.16731 1.82948 3.27894 3.95196 3.27894 5.85661C3.27894 7.46824 2.83165 8.2132 2.4363 8.87056C2.11925 9.39847 1.86886 9.81553 1.86886 10.7217C1.99832 12.1837 2.96343 12.952 7.87661 12.952C12.7627 12.952 13.758 12.1496 13.8867 10.6713C13.8844 9.81553 13.634 9.39847 13.3169 8.87056C12.9216 8.2132 12.4743 7.46824 12.4743 5.85661C12.4743 3.95196 10.5859 1.82948 7.87661 1.82948Z" fill="#595959"/>
</svg>
