<svg width="20" height="16" viewBox="0 0 20 16" fill="none" xmlns="http://www.w3.org/2000/svg">
<path d="M19.9904 10.4143C19.9998 10.3546 20.0023 10.2939 19.9979 10.2336C20.0022 10.4135 19.9237 10.8135 19.5088 10.695C19.094 10.5764 19.0114 10.3543 18.5477 10.3608C18.0164 10.3681 17.6371 10.9254 17.455 11.2211C17.3078 11.4604 17.1052 11.5311 17.0313 11.5497C17.0076 11.4031 16.936 11.276 16.8088 11.2292C16.828 11.1211 16.8242 11.0101 16.7975 10.9036C16.6786 10.4035 16.118 10.5353 16.118 10.5353C16.1199 10.485 16.1177 10.4346 16.1112 10.3847C16.2794 10.2452 16.7227 10.007 17.2537 10.7512C17.2537 10.7512 17.7619 10.1229 18.3655 10.1737C18.9692 10.2245 19.0281 10.4156 19.3797 10.5544C19.7313 10.6931 19.9745 10.7017 19.9984 10.2318C19.9984 10.2318 19.9094 10.5216 19.6872 10.5216C19.465 10.5216 18.927 9.94596 18.3174 9.94596C17.7078 9.94596 17.282 10.5216 17.282 10.5216C17.282 10.5216 16.6786 9.76287 16.0819 10.249C16.0367 10.1105 15.9431 9.99305 15.8183 9.918C15.9734 9.29009 16.0516 8.64568 16.0513 7.99893C16.0513 3.58113 12.4578 0 8.02536 0C3.59289 0 0 3.58301 0 8.00081C0 12.4186 3.59316 16 8.0259 16C9.46967 16 11.1077 15.5161 12.0161 14.9017L12.0449 14.8818C12.0573 14.8735 12.0699 14.8649 12.082 14.855H12.0804C12.1315 14.8187 12.1813 14.7818 12.2284 14.7434C12.2475 14.7385 12.2663 14.7332 12.2849 14.727C12.3892 14.7689 12.501 14.7891 12.6134 14.7863C12.7258 14.7836 12.8364 14.7579 12.9386 14.7108C13.0053 14.7627 13.2103 14.895 13.5516 14.8743C14.0071 14.8474 14.35 14.4441 14.35 14.4441C14.35 14.4441 14.5881 14.5589 14.9927 14.4081C15.2843 14.2992 15.2988 14.0382 15.2886 13.9137C15.53 13.8356 15.7359 13.6745 15.8697 13.4591C16.0343 13.4908 16.6468 13.5236 16.7722 12.7619H16.7752C17.4477 12.7022 17.6156 12.3261 17.905 11.6088C18.1945 10.8915 18.5824 10.9507 18.7836 10.9507C18.9848 10.9507 19.4575 11.0509 19.7332 10.8724C19.996 10.7022 19.992 10.4079 19.992 10.4079L19.9904 10.4143ZM15.9095 10.7186C16.2729 10.5665 16.6065 10.795 16.5858 11.0235C16.574 11.1604 16.5233 11.291 16.4398 11.4001C16.3563 11.5091 16.2433 11.5921 16.1142 11.6392C15.8013 11.7567 15.6515 11.5892 15.6515 11.5892C15.6285 11.6459 15.5892 11.6946 15.5386 11.729C15.4879 11.7634 15.4282 11.782 15.3669 11.7825C15.2952 11.7825 15.2264 11.754 15.1757 11.7034C15.125 11.6527 15.0965 11.584 15.0965 11.5123C15.0965 11.4406 15.125 11.3719 15.1757 11.3212C15.2264 11.2706 15.2952 11.2421 15.3669 11.2421C15.4869 11.2421 15.5283 11.3362 15.5146 11.4228C15.6108 11.3263 15.665 11.1958 15.6655 11.0596C15.6655 10.7638 15.4102 10.5235 15.0957 10.5235C14.8063 10.5235 14.5674 10.7262 14.5308 10.9891C14.5174 10.988 14.5039 10.9875 14.4905 10.9875C14.1827 10.9875 13.9331 11.2534 13.9331 11.5814C13.9331 11.657 13.9467 11.7319 13.9732 11.8027C13.9099 11.8193 13.7768 11.8395 13.6673 11.7594C13.518 11.6497 13.1258 11.1165 13.5659 10.6802C14.006 10.2438 14.3882 10.4864 14.3882 10.4864C14.5424 10.2643 14.8187 9.97231 15.4188 10.0183C16.019 10.0643 15.9095 10.7186 15.9095 10.7186ZM13.3458 12.6641C13.4265 12.6138 13.4023 12.41 13.1893 12.3952C13.0045 12.3815 12.7556 12.4759 12.7556 12.7834C12.7556 13.091 13.0545 13.1555 13.2172 13.1295C13.3604 13.1065 13.4913 13.035 13.5879 12.927C13.9067 13.1735 14.3449 12.945 14.4488 12.6678C14.5222 12.4716 14.4875 12.2737 14.4609 12.1748C14.4711 12.1748 14.4811 12.1766 14.4915 12.1766C14.5758 12.1768 14.6588 12.1567 14.7337 12.118C14.7337 12.118 14.7901 12.3207 15.0253 12.4544C15.0618 12.5299 15.1557 12.7652 15.021 12.9579C14.8579 13.1905 14.6145 13.0655 14.6145 13.0655C14.5319 13.4316 13.9898 13.6623 13.469 13.6389C12.9482 13.6155 12.8336 13.3195 12.8336 13.3195C12.3085 13.4169 11.8534 13.0485 11.9911 12.5323C12.1288 12.0161 12.6241 12.0858 12.6241 12.0858C12.8022 11.5895 13.2503 11.6841 13.3179 11.7016C13.386 11.7997 13.4825 11.8748 13.5944 11.9167C13.8236 11.9952 13.9815 11.9672 14.0517 11.946C14.0856 11.9923 14.1262 12.0334 14.1722 12.0678C14.2567 12.2022 14.2952 12.4732 14.226 12.6283C14.1898 12.7073 14.1296 12.7729 14.054 12.8158C13.9784 12.8587 13.8912 12.8767 13.8048 12.8673C13.645 12.8472 13.6 12.7746 13.6 12.7746C13.5591 12.8367 13.5035 12.8877 13.4382 12.9233C13.3728 12.9589 13.2997 12.9779 13.2253 12.9786C12.9716 12.9786 12.9563 12.702 13.061 12.6143C13.1656 12.5267 13.2554 12.5818 13.2611 12.6302C13.2623 12.6466 13.2575 12.6628 13.2476 12.6759C13.2377 12.689 13.2234 12.6981 13.2073 12.7014C13.2565 12.7061 13.3057 12.6928 13.3458 12.6641ZM7.82629 15.8903C3.70023 15.7056 0.411854 12.3146 0.411854 8.15594C0.411854 3.87955 3.89015 0.412959 8.18058 0.412959C12.471 0.412959 15.9493 3.87955 15.9493 8.15594C15.9496 8.73757 15.8842 9.31738 15.7545 9.88439C15.556 9.7868 15.3107 9.77094 15.1089 9.80723C14.6882 9.88332 14.3557 10.3326 14.3557 10.3326C14.3557 10.3326 14.3019 10.25 14.0444 10.2358C13.5664 10.2183 13.1807 10.6579 13.1379 11.0155C13.1195 11.188 13.1457 11.3624 13.2137 11.522C12.7198 11.4661 12.5735 11.9269 12.5735 11.9269C12.4928 11.9091 11.936 11.8578 11.5892 11.9102C11.5932 11.9019 11.6944 11.6994 12.177 11.5696C12.4573 11.494 12.6919 11.1932 12.7478 11.102C12.8191 11.0057 12.8653 10.8932 12.8823 10.7746C12.8993 10.3498 12.6843 10.06 12.4005 9.85831C12.2515 9.48488 11.9585 9.47547 11.9585 9.47547C11.9585 9.47547 11.763 9.32706 11.5884 9.33647C11.2069 9.11843 11.0208 9.03025 10.9159 8.71811C10.811 8.40597 10.8252 7.60694 10.8252 7.60694C10.9834 7.40745 10.9866 7.22651 10.8672 6.99933C10.5175 6.37747 10.7972 6.21965 10.4637 5.43487C10.1301 4.65009 9.02123 4.48501 9.02123 4.48501C8.94188 4.30407 9.17941 3.88197 9.06078 3.63839C9.33302 2.84501 8.68605 2.34628 8.43479 2.24036C8.36969 2.08738 8.1787 1.92956 8.00653 1.89246C7.97773 1.84698 7.93789 1.80952 7.89072 1.78356C7.84354 1.75761 7.79057 1.744 7.73671 1.744C7.68286 1.744 7.62989 1.75761 7.58271 1.78356C7.53554 1.80952 7.4957 1.84698 7.4669 1.89246C7.29446 1.92956 7.10374 2.08738 7.03864 2.24036C6.78738 2.3479 6.14041 2.84581 6.41265 3.63839C6.29402 3.88197 6.53128 4.30407 6.45219 4.48501C6.45219 4.48501 5.34468 4.65036 5.0095 5.43514C4.67431 6.21992 4.95354 6.37774 4.60464 6.9996C4.48358 7.22678 4.48842 7.40772 4.6466 7.60721C4.6466 7.60721 4.66059 8.40516 4.55568 8.71838C4.45076 9.03159 4.26488 9.11977 3.88315 9.33674C3.79465 9.3319 3.70103 9.36793 3.63001 9.40422C3.37096 9.46471 3.092 9.6193 2.84989 9.95349C2.17467 10.8848 2.56043 12.0027 3.23565 12.282C3.91086 12.5614 4.00717 12.3753 4.00717 12.3753C4.00717 12.3753 3.89257 12.9808 4.49542 13.1768C4.67254 13.2327 4.86158 13.2392 5.04212 13.1956C5.22266 13.1519 5.38784 13.0598 5.51981 12.9292C5.85822 12.5955 6.61145 12.0761 7.45399 11.9798C8.71403 11.836 9.0476 12.6614 9.97433 12.9996C10.7919 13.2978 10.6802 12.6251 11.2621 12.1379C11.2621 12.1379 11.7194 12.0164 12.1213 11.9836C11.7178 12.1987 11.5849 12.8348 11.8792 13.1601C11.9093 13.1929 11.9417 13.2235 11.976 13.2518C11.6925 13.2612 11.554 13.4827 11.5214 13.6319C11.187 13.5346 10.8658 13.8376 10.8545 14.1188C10.8473 14.3014 10.896 14.471 11.0159 14.5791C10.723 14.9875 10.2463 15.2641 9.81454 15.4437C9.35104 15.6365 8.93515 15.8183 8.43426 15.8559C8.25913 15.8688 8.00626 15.8876 7.82737 15.8908L7.82629 15.8903ZM4.48842 10.6998C4.29554 11.0725 4.39212 12.004 5.26021 11.8177C6.12831 11.6314 6.03173 10.8861 6.03173 10.8861C6.03173 10.8861 6.89956 10.5135 6.51299 9.86208C6.12642 9.21065 5.35625 9.58274 5.35625 9.58274C5.35625 9.58274 5.35625 9.36147 5.08401 9.31389C5.26129 8.89878 5.39552 8.25998 5.31186 7.42627C5.31186 7.42627 5.18328 7.29991 5.21314 7.23162C5.243 7.16333 5.48376 6.72241 5.50071 6.22611C5.50797 6.01997 5.57477 5.82033 5.69305 5.6513C5.86727 5.50674 6.0495 5.3721 6.23887 5.24802C6.46968 5.1636 6.76317 5.12219 7.13602 5.15177C7.23044 5.12192 7.16292 5.08025 7.15323 5.05767C7.07899 5.07703 6.95363 5.06197 6.94287 4.90147C6.93211 4.74096 7.00286 4.50571 6.89122 4.18927C6.98994 4.03092 6.93749 3.88654 6.88907 3.82874C6.89875 3.73249 6.88611 3.7005 6.88611 3.7005C6.88611 3.7005 6.8323 3.66716 6.86997 3.59457C6.86136 3.52386 6.8592 3.47251 6.91274 3.45557C6.85894 3.39992 6.9278 3.33997 6.96869 3.35287C6.94609 3.28485 6.98994 3.26415 7.03083 3.27221C7.01146 3.21844 7.07468 3.18833 7.11665 3.20339C7.11396 3.19104 7.1151 3.17817 7.11989 3.16648C7.12469 3.15479 7.13293 3.14483 7.14352 3.13792C7.1541 3.13101 7.16654 3.12748 7.17918 3.12779C7.19182 3.1281 7.20407 3.13225 7.2143 3.13967C7.20831 3.12784 7.20642 3.11437 7.20891 3.10135C7.2114 3.08833 7.21813 3.07651 7.22806 3.06772C7.23799 3.05893 7.25055 3.05368 7.26378 3.05279C7.27701 3.05189 7.29017 3.05541 7.30119 3.06278C7.29743 3.05135 7.29683 3.03912 7.29945 3.02739C7.30208 3.01565 7.30783 3.00484 7.3161 2.99611C7.32438 2.98737 7.33486 2.98104 7.34644 2.97777C7.35802 2.9745 7.37027 2.97443 7.38189 2.97755C7.36252 2.92002 7.41767 2.86786 7.47766 2.87404C7.48008 2.80522 7.51801 2.77699 7.57343 2.79715C7.57517 2.78545 7.57938 2.77426 7.58577 2.76431C7.59217 2.75436 7.6006 2.74588 7.61051 2.73942C7.62043 2.73297 7.6316 2.72869 7.64329 2.72687C7.65498 2.72505 7.66693 2.72573 7.67834 2.72886C7.67242 2.69042 7.70524 2.66864 7.73618 2.66004C7.76846 2.66864 7.79993 2.69042 7.79401 2.72886C7.80542 2.72573 7.81737 2.72505 7.82906 2.72687C7.84075 2.72869 7.85192 2.73297 7.86184 2.73942C7.87175 2.74588 7.88019 2.75436 7.88658 2.76431C7.89297 2.77426 7.89718 2.78545 7.89893 2.79715C7.95461 2.77699 7.99227 2.80522 7.99469 2.87404C8.05495 2.86786 8.10983 2.92002 8.09046 2.97755C8.10209 2.97433 8.11438 2.97434 8.12601 2.97757C8.13764 2.9808 8.14817 2.98714 8.15647 2.9959C8.16476 3.00466 8.17052 3.01552 8.17311 3.0273C8.17569 3.03908 8.17502 3.05135 8.17116 3.06278C8.18221 3.05553 8.19534 3.05211 8.20852 3.05305C8.2217 3.05399 8.23421 3.05923 8.24411 3.06797C8.25402 3.07671 8.26078 3.08846 8.26335 3.10142C8.26591 3.11437 8.26415 3.12781 8.25832 3.13967C8.26856 3.13234 8.28077 3.12828 8.29336 3.12802C8.30595 3.12775 8.31832 3.1313 8.32885 3.13819C8.33939 3.14508 8.34759 3.155 8.35238 3.16663C8.35717 3.17827 8.35833 3.19108 8.35571 3.20339C8.39767 3.18833 8.46089 3.21925 8.44152 3.27221C8.48241 3.26496 8.52653 3.28566 8.50393 3.35287C8.54455 3.33997 8.61342 3.39992 8.55962 3.45557C8.61342 3.47251 8.61126 3.52386 8.60266 3.59457C8.64112 3.66716 8.58652 3.7005 8.58652 3.7005C8.58652 3.7005 8.5736 3.73249 8.58329 3.82874C8.53514 3.88654 8.48241 4.03092 8.58113 4.18927C8.4695 4.50571 8.54025 4.74096 8.52976 4.90147C8.51926 5.06197 8.39606 5.07649 8.32073 5.05659C8.31105 5.07918 8.24353 5.12085 8.33795 5.15069C8.70999 5.12112 9.00294 5.16225 9.23348 5.2464C9.4236 5.37053 9.60663 5.50516 9.78172 5.64968C9.89945 5.81852 9.96587 6.01775 9.97299 6.22342C9.99021 6.71972 10.2304 7.16037 10.2606 7.22893C10.2907 7.29749 10.1618 7.42358 10.1618 7.42358C10.0074 8.96357 10.5995 9.81799 10.8271 9.86504C11.0245 9.90348 11.179 9.93789 11.2519 10.1003C11.5868 10.1272 11.5478 10.3484 11.5478 10.3484C11.831 10.4511 11.9685 10.5412 12.0371 11.0117C12.0731 11.2582 11.9776 11.4201 11.8789 11.5188C11.1564 11.6701 10.6953 12.0879 10.2786 12.3842C9.83579 12.6996 9.21707 11.833 8.26613 11.6403C7.31518 11.4475 6.68811 11.5768 5.97793 11.7371C5.78572 11.7857 5.59743 11.8486 5.41462 11.9253C4.63584 12.2393 3.74676 11.7223 3.71825 10.9076C3.70372 10.4993 3.90952 10.1094 4.39077 9.9543C5.54751 9.58166 5.93381 10.9789 5.64463 11.1641C5.35544 11.3494 4.87284 11.0708 4.96941 10.8845C5.06599 10.6982 5.25887 10.9778 5.25887 10.7915C5.25887 10.6052 4.6813 10.3275 4.48842 10.6998ZM8.08454 15.8978C8.32154 15.8978 8.63951 15.882 9.06401 15.8494C8.77106 15.8826 8.47648 15.8992 8.18166 15.8992C8.14911 15.8992 8.11683 15.8984 8.08454 15.8978ZM9.55038 15.779C9.39274 15.807 9.23339 15.8301 9.07235 15.8484C10.2958 15.5755 11.0041 14.8439 11.1564 14.6625C11.1752 14.6701 11.1945 14.6765 11.2142 14.6815C11.4832 14.7431 11.6632 14.6477 11.6632 14.6477C11.7423 14.7216 11.8609 14.7614 11.9889 14.7689C11.8125 14.8996 11.0593 15.4222 9.55038 15.779ZM12.8167 14.6245C12.6825 14.6872 12.5326 14.7084 12.3863 14.6853C12.5149 14.6184 12.6165 14.5122 12.6488 14.3664C12.7398 13.9538 12.492 13.793 12.3037 13.7696C12.1154 13.7462 11.9499 13.8648 11.9776 14.0446C12.0054 14.2245 12.1977 14.2014 12.1977 14.2014C12.0304 14.1059 12.1108 13.9177 12.2569 13.9056C12.403 13.8935 12.545 14.0401 12.499 14.278C12.3376 14.9488 11.6583 14.5638 11.6583 14.5638C11.364 14.7436 10.9089 14.4495 11.0358 14.039C11.1628 13.6284 11.6468 13.7336 11.6468 13.7336C11.668 13.4031 11.9273 13.347 12.1296 13.3542C12.4689 13.5319 12.8108 13.4214 12.8108 13.4214C12.9087 13.529 13.0139 13.633 13.171 13.6957C13.3458 14.3331 13.0682 14.5052 12.8167 14.6245ZM14.3143 14.3452C14.0991 14.5684 13.635 14.9232 13.0569 14.6474C13.1709 14.5741 13.2617 14.4701 13.3189 14.3474C13.3452 14.285 13.3619 14.219 13.3684 14.1516C13.4255 14.1957 13.5696 14.2828 13.808 14.2732C14.2987 14.2535 14.4515 13.8699 14.4515 13.8699C14.4515 13.8699 14.6196 14.0581 15.1509 13.9505C15.1482 14.0928 15.0675 14.4404 14.3143 14.3452ZM15.864 13.0206C15.8301 13.4225 15.4745 13.6975 15.1272 13.8002C14.7799 13.9029 14.3864 13.7196 14.3864 13.7196C14.31 13.9228 14.0813 14.1229 13.8018 14.1575C13.6518 14.18 13.4988 14.1457 13.3727 14.0613C13.3708 13.9512 13.3505 13.8421 13.3127 13.7387C13.4518 13.7656 13.6256 13.768 13.8521 13.7277C14.4708 13.6174 14.6737 13.2437 14.6737 13.2437C15.3602 13.3596 15.3311 12.691 15.3193 12.5533C15.4181 12.5687 15.5184 12.5729 15.6182 12.5657C15.6644 12.5624 15.7088 12.5587 15.7527 12.5544C15.7981 12.596 15.8896 12.7189 15.864 13.0206ZM14.7802 11.9957C14.7023 12.0288 14.6184 12.0454 14.5338 12.0444C14.2777 12.0444 14.0703 11.8293 14.0703 11.5639C14.0703 11.2986 14.2777 11.0837 14.5338 11.0837C14.577 11.0837 14.6201 11.09 14.6616 11.1023C14.6632 11.0948 14.6648 11.0872 14.6667 11.08C14.6897 10.9895 14.743 10.9095 14.8177 10.8534C14.8924 10.7973 14.9841 10.7685 15.0775 10.7716C15.1709 10.7748 15.2604 10.8097 15.3312 10.8707C15.402 10.9317 15.4498 11.015 15.4667 11.1069C15.4026 11.0772 15.3326 11.0622 15.262 11.063C15.0242 11.063 14.8316 11.3002 14.8316 11.5123C14.8316 11.8118 15.0242 11.954 15.262 11.954C15.4344 11.954 15.5832 11.879 15.6518 11.7236C15.7235 11.7788 15.8062 11.818 15.8944 11.8385C15.9826 11.859 16.0742 11.8604 16.1629 11.8425C16.4386 11.7817 16.6902 11.5989 16.7832 11.3295C16.8263 11.365 16.9013 11.4532 16.9013 11.6376C16.9013 11.8962 16.7617 12.1995 16.0644 12.3503C15.3836 12.4968 15.0909 12.467 14.7802 11.9957ZM15.9321 13.3437C15.9793 13.2425 16.0086 13.1339 16.0187 13.0227C16.0413 12.735 15.941 12.5888 15.8931 12.5364C15.9805 12.524 16.0601 12.5095 16.1352 12.4923C16.1723 12.5684 16.2966 12.7528 16.6345 12.7673C16.5968 12.927 16.4526 13.3316 15.9321 13.3437ZM19.8828 10.6686C19.6474 11.0128 18.8944 10.7369 18.435 10.8469C17.9755 10.9568 17.7172 11.6024 17.5034 12.0255C17.2895 12.4487 16.9506 12.5149 16.7001 12.5149C16.5236 12.5149 16.4214 12.4562 16.3757 12.4213C16.5704 12.3522 16.7467 12.2393 16.8908 12.0914C16.9775 12.0048 17.0283 11.8626 17.0388 11.7177C17.466 11.6766 17.5195 11.3682 17.8372 10.9805C18.1633 10.5829 18.6173 10.3939 18.9442 10.5684C19.3165 10.7676 19.6264 10.8622 19.8295 10.716C19.85 10.7012 19.8686 10.6839 19.8849 10.6646L19.8828 10.6686Z" fill="#9E0C10"/>
</svg>
